# AST/ASF file generated using VICON BodyLanguage
# -----------------------------------------------
:version 1.10
:name VICON
:units
  mass 1.0
  length 0.45
  angle deg
:documentation
   .ast/.asf automatically generated from VICON data using
   VICON BodyBuilder and BodyLanguage model FoxedUp or BRILLIANT.MOD
:root
   order TX TY TZ RX RY RZ
   axis XYZ
   position 0 0 0  
   orientation 0 0 0 
:bonedata
  begin
     id 1 
     name lhipjoint
     direction 0.499407 -0.589134 0.635228 
     length 2.99786 
     axis 0 0 0  XYZ
  end
  begin
     id 2 
     name lfemur
     direction 0.34202 -0.939693 0  
     length 6.89561  
     axis 0 0 20  XYZ
    dof rx ry rz
    limits (-160.0 20.0)
           (-70.0 70.0)
           (-60.0 70.0)
  end
  begin
     id 3 
     name ltibia
     direction 0.34202 -0.939693 0   
     length 8.00494   
     axis 0 0 20   XYZ
    dof rx
    limits (-10.0 170.0)
  end
  begin
     id 4 
     name lfoot
     direction 0.0680929 -0.194353 0.978565   
     length 2.06695   
     axis -90 7.62852e-016 20   XYZ
    dof rx rz
    limits (-45.0 90.0)
           (-70.0 20.0)
  end
  begin
     id 5 
     name ltoes
     direction 1.5346e-011 -4.21731e-011 1   
     length 1.04539   
     axis -90 7.62852e-016 20   XYZ
    dof rx
    limits (-90.0 20.0)
  end
  begin
     id 6 
     name rhipjoint
     direction -0.347526 -0.63762 0.687508   
     length 2.76989  
     axis 0 0 0  XYZ 
  end
  begin
     id 7 
     name rfemur
     direction -0.34202 -0.939693 0   
     length 6.97892   
     axis 0 0 -20   XYZ
    dof rx ry rz
    limits (-160.0 20.0)
           (-70.0 70.0)
           (-70.0 60.0)
  end
  begin
     id 8 
     name rtibia
     direction -0.34202 -0.939693 0   
     length 7.77056   
     axis 0 0 -20   XYZ
    dof rx
    limits (-10.0 170.0)
 end
 begin
     id 9 
     name rfoot
     direction -0.102685 -0.282124 0.953867   
     length 2.15099  
     axis -90 -7.62852e-016 -20   XYZ
    dof rx rz
    limits (-45.0 90.0)
           (-20.0 70.0)
  end
  begin
     id 10 
     name rtoes
     direction -0.000106751 -0.00118973 0.999999   
     length 1.0765   
     axis -90 -7.62852e-016 -20   XYZ
    dof rx
    limits (-90.0 20.0)
  end
  begin
     id 11 
     name lowerback
     direction -0.0190651 0.988667 0.148909   
     length 1.90627   
     axis 0 0 0   XYZ
    dof rx ry rz
    limits (-20.0 45.0)
           (-30.0 30.0)
           (-30.0 30.0)
  end
  begin
     id 12 
     name upperback
     direction -0.0180344 0.995767 -0.0901298   
     length 1.88167   
     axis 0 0 0   XYZ
    dof rx ry rz
    limits (-20.0 45.0)
           (-30.0 30.0)
           (-30.0 30.0)
  end
  begin
     id 13 
     name thorax
     direction -0.00329861 0.986394 -0.164366   
     length 1.91528   
     axis 0 0 0   XYZ
    dof rx ry rz
    limits (-20.0 45.0)
           (-30.0 30.0)
           (-30.0 30.0)
  end
  begin
     id 14 
     name lowerneck
     direction -0.0177752 0.978637 -0.204826   
     length 2.09812   
     axis 0 0 0   XYZ
    dof rx ry rz
    limits (-20.0 45.0)
           (-30.0 30.0)
           (-30.0 30.0)
  end
  begin
     id 15 
     name upperneck
     direction 0.108032 0.994134 0.00511541   
     length 2.11937   
     axis 0 0 0   XYZ
    dof rx ry rz
    limits (-20.0 45.0)
           (-30.0 30.0)
           (-30.0 30.0)
  end
  begin
     id 16
     name head
     direction 0.0423659 0.998938 0.0181058  
     length 2.14816  
     axis 0 0 0   XYZ
    dof rx ry rz
    limits (-20.0 45.0)
           (-30.0 30.0)
           (-30.0 30.0)
  end
  begin
     id 17 
     name lclavicle
     direction 0.869509 0.396908 0.293968  
     length 4.73713  
     axis 0 0 0   XYZ
    dof ry rz
    limits (-20.0 10.0)
           (0.0 20.0)
  end
  begin
     id 18 
     name lhumerus
     direction 1 -4.49e-011 3.63829e-027   
     length 4.72096   
     axis 180 -30 -90   XYZ
    dof rx ry rz
    limits (-60.0 90.0)
           (-90.0 90.0)
           (-90.0 90.0)
  end
  begin
     id 19
     name lradius
     direction 1 -4.48932e-011 7.19196e-027   
     length 3.18148   
     axis 180 -30 -90   XYZ
    dof rx
    limits (-10.0 170.0)
  end
  begin
     id 20
     name lwrist
     direction 1 -4.48995e-011 1.85462e-026   
     length 1.59074   
     axis -1.20349e-014 90 90   XYZ
    dof ry
    limits (-180.0 0.0)
 end
  begin
     id 21 
     name lhand
     direction 1 -4.48943e-011 3.70924e-026   
     length 0.848715   
     axis -2.36681e-014 90 90   XYZ
    dof rx rz
    limits (-90.0 90.0)
           (-45.0 45.0)
  end
  begin
     id 22 
     name lfingers
     direction 1 -4.48949e-011 7.41849e-026   
     length 0.684256   
     axis -4.73363e-014 90 90   XYZ
    dof rx
    limits (0.0 90.0)
  end
  begin
     id 23
     name lthumb
     direction 0.707107 -6.35018e-011 0.707107   
     length 0.982458   
     axis -90 45 2.85299e-015   XYZ
    dof rx rz
    limits (-45.0 45.0)
           (-45.0 45.0)
  end
  begin
     id 24 
     name rclavicle
     direction -0.923214 0.372787 0.0932992   
     length 4.28107  
     axis 0 0 0   XYZ 
    dof ry rz
    limits (-10.0 20.0)
           (-20.0 0.0)
  end
  begin
     id 25 
     name rhumerus
     direction -1 -4.48968e-011 6.59881e-018  
     length 4.76918   
     axis 180 30 90   XYZ
    dof rx ry rz
    limits (-90.0 60.0)
           (-90.0 90.0)
           (-90.0 90.0)
  end
  begin
     id 26 
     name rradius
     direction -1 0.000264575 -0.000152753   
     length 3.36438   
     axis 180 30 90   XYZ
    dof rx
    limits (-10.0 170.0)
  end
  begin
     id 27 
     name rwrist
     direction -1 -4.86632e-005 -0.00030086   
     length 1.68219   
     axis -1.20349e-014 -90 -90   XYZ
    dof ry
    limits (-180.0 0.0)
  end
  begin
     id 28
     name rhand
     direction -1 -4.48915e-011 3.70924e-026   
     length 0.767694   
     axis -2.36681e-014 -90 -90   XYZ
    dof rx rz
    limits (-90.0 90.0)
           (-45.0 45.0)
  end
  begin
     id 29
     name rfingers
     direction -1 -4.49015e-011 7.41849e-026   
     length 0.618935   
     axis -4.73363e-014 -90 -90   XYZ
    dof rx
    limits (0.0 90.0)
  end
  begin
     id 30
     name rthumb
     direction -0.707107 -6.34859e-011 0.707107   
     length 0.88867   
     axis -90 -45 -2.85299e-015   XYZ
    dof rx rz
    limits (-45.0 45.0)
           (-45.0 45.0)
  end
:hierarchy
  begin
    root lhipjoint rhipjoint lowerback
    lhipjoint lfemur
    lfemur ltibia
    ltibia lfoot
    lfoot ltoes
    rhipjoint rfemur
    rfemur rtibia
    rtibia rfoot
    rfoot rtoes
    lowerback upperback
    upperback thorax
    thorax lowerneck lclavicle rclavicle
    lowerneck upperneck
    upperneck head
    lclavicle lhumerus
    lhumerus lradius
    lradius lwrist
    lwrist lhand lthumb
    lhand lfingers
    rclavicle rhumerus
    rhumerus rradius
    rradius rwrist
    rwrist rhand rthumb
    rhand rfingers
  end

#!OML:ASF C:\Documents and Settings\Administrator\Desktop\New Folder (2)\VR_Jason.ASF
:FULLY-SPECIFIED
:DEGREES
886
root -1.91542 17.8888 0.0466158 12.5184 -1.56362 10.3611
lowerback -19.5639 1.11571 -2.58603
upperback 6.57463 2.58656 -2.02766
thorax 18.8836 1.00423 -0.0145221
lowerneck 22.7597 -4.81714 -7.89491
upperneck -1.30272 -7.56504 10.7709
head -3.2444 -4.32709 5.30233
rclavicle 3.06128e-014 -3.65764e-014
rhumerus 13.5906 -36.4225 -55.7402
rradius 85.9232
rwrist -30.8068
rhand 14.1516 13.5366
rfingers 7.12502
rthumb 39.0524 -11.9684
lclavicle 3.06128e-014 -3.65764e-014
lhumerus 23.3279 6.75711 60.9783
lradius 74.3693
lwrist 47.2256
lhand -4.03728 34.5327
lfingers 7.12502
lthumb 21.7182 63.3344
rfemur -24.608 -8.12832 17.2825
rtibia 28.8752
rfoot -17.801 -15.1366
rtoes -5.51326
lfemur -81.934 -1.48309 -34.2208
ltibia 59.7888
lfoot 3.49908 -1.58621
ltoes -15.3831
887
root -1.91926 17.9028 0.0416052 12.5514 -1.76891 10.5779
lowerback -19.5724 1.08635 -2.68516
upperback 6.55417 2.57822 -2.05661
thorax 18.8605 0.991763 0.00479155
lowerneck 22.8859 -4.79856 -7.70213
upperneck -1.32403 -7.51737 10.4258
head -3.29046 -4.28586 5.16434
rclavicle 2.38542e-015 6.36111e-015
rhumerus 13.3039 -36.3927 -55.7069
rradius 85.8958
rwrist -30.5448
rhand 13.6262 13.686
rfingers 7.12502
rthumb 38.557 -11.9595
lclavicle 2.38542e-015 6.36111e-015
lhumerus 23.3717 6.96536 60.8525
lradius 74.2763
lwrist 47.1064
lhand -4.68903 34.4367
lfingers 7.12502
lthumb 21.0922 63.3095
rfemur -24.5164 -7.90467 17.0282
rtibia 28.5452
rfoot -17.552 -15.1713
rtoes -5.10615
lfemur -81.427 -1.64646 -32.1589
ltibia 57.2398
lfoot 5.24723 -1.33285
ltoes -17.3233
888
root -1.92117 17.9196 0.0352596 12.6117 -1.89958 10.7951
lowerback -19.6148 1.02386 -2.76609
upperback 6.52786 2.52193 -2.08996
thorax 18.8537 0.960779 -0.0075989
lowerneck 22.9944 -4.78073 -7.52815
upperneck -1.26847 -7.47655 10.1138
head -3.30786 -4.24918 5.03748
rclavicle 6.36111e-015 -8.74653e-015
rhumerus 12.8598 -36.3461 -55.5745
rradius 85.9043
rwrist -30.8544
rhand 13.3242 13.5886
rfingers 7.12502
rthumb 38.272 -12.1361
lclavicle 6.36111e-015 -8.74653e-015
lhumerus 23.3088 7.08949 60.6052
lradius 74.2128
lwrist 47.1964
lhand -5.60287 34.5778
lfingers 7.12502
lthumb 20.2141 63.546
rfemur -24.4618 -7.82178 16.7782
rtibia 28.2589
rfoot -17.2153 -15.1047
rtoes -5.0067
lfemur -80.9309 -1.94467 -29.9282
ltibia 54.693
lfoot 7.26947 0.0264553
ltoes -11.6306
889
root -1.92314 17.9378 0.034156 12.6879 -2.03554 11.1193
lowerback -19.6839 0.950612 -2.94872
upperback 6.52805 2.48151 -2.12198
thorax 18.8943 0.923547 0.0450398
lowerneck 23.0786 -4.75893 -7.55946
upperneck -1.25819 -7.46884 9.99681
head -3.31939 -4.23914 5.00756
rclavicle -8.74653e-015 1.74931e-014
rhumerus 12.5781 -36.5311 -55.4785
rradius 85.822
rwrist -30.6378
rhand 13.2248 13.7745
rfingers 7.12502
rthumb 38.1782 -11.976
lclavicle -8.74653e-015 1.74931e-014
lhumerus 23.1178 7.03497 60.1616
lradius 74.368
lwrist 47.4613
lhand -6.63667 34.6909
lfingers 7.12502
lthumb 19.2202 63.7611
rfemur -24.4573 -7.99744 16.4276
rtibia 28.0329
rfoot -16.9613 -14.8298
rtoes -5.23174
lfemur -80.276 -2.34475 -27.6259
ltibia 52.2899
lfoot 9.5576 -5.25866
ltoes -37.4082
890
root -1.92635 17.9527 0.0384815 12.7584 -2.1316 11.4158
lowerback -19.7805 0.898161 -3.04855
upperback 6.59311 2.45371 -2.16571
thorax 19.0409 0.90096 0.0410558
lowerneck 22.8378 -4.78686 -7.55996
upperneck -1.16255 -7.50439 9.91855
head -3.25416 -4.24666 4.97257
rclavicle 1.66979e-014 9.54166e-015
rhumerus 12.4233 -36.9371 -55.4921
rradius 85.8085
rwrist -30.2512
rhand 13.3466 13.7647
rfingers 7.12502
rthumb 38.2931 -11.9541
lclavicle 1.66979e-014 9.54166e-015
lhumerus 23.0077 6.91443 59.6472
lradius 74.6037
lwrist 47.5262
lhand -7.2242 34.2404
lfingers 7.12502
lthumb 18.6552 63.3659
rfemur -24.4309 -8.14943 16.0955
rtibia 27.8413
rfoot -17.0015 -14.5461
rtoes -5.09284
lfemur -79.5487 -2.77131 -25.2318
ltibia 50.1018
lfoot 9.5576 -5.25866
ltoes -37.4082
891
root -1.93037 17.9643 0.0424755 12.8185 -2.23357 11.6358
lowerback -19.9374 0.881605 -3.05429
upperback 6.66507 2.45352 -2.21499
thorax 19.2397 0.901352 -0.0124762
lowerneck 22.4063 -4.86008 -7.45999
upperneck -0.857735 -7.57892 9.76348
head -3.0996 -4.26534 4.88665
rclavicle 2.0276e-014 -4.77083e-015
rhumerus 12.1662 -37.3487 -55.5357
rradius 85.838
rwrist -30.2004
rhand 13.4712 13.6538
rfingers 7.12502
rthumb 38.4107 -12.0325
lclavicle 2.0276e-014 -4.77083e-015
lhumerus 23.7005 7.21075 59.9456
lradius 74.1302
lwrist 46.8455
lhand -7.2523 33.968
lfingers 7.12502
lthumb 18.6282 63.096
rfemur -24.4067 -8.05124 15.8414
rtibia 27.6815
rfoot -17.0684 -14.5085
rtoes -4.87329
lfemur -78.9037 -3.16631 -22.684
ltibia 48.2272
lfoot 9.5576 -5.25866
ltoes -37.4082
892
root -1.9267 17.971 0.0443345 12.8822 -2.41717 11.7377
lowerback -19.9676 0.914125 -2.90624
upperback 6.63372 2.45274 -2.1953
thorax 19.223 0.917407 -0.0725516
lowerneck 22.3176 -4.84897 -7.59082
upperneck -0.709184 -7.60128 9.76772
head -3.03402 -4.27372 4.9022
rclavicle -2.66371e-014 3.18055e-015
rhumerus 11.7849 -37.4815 -55.3075
rradius 85.6417
rwrist -29.7977
rhand 13.0875 14.0944
rfingers 7.12502
rthumb 38.0485 -11.6916
lclavicle -2.66371e-014 3.18055e-015
lhumerus 23.8861 7.20328 59.9455
lradius 74.1082
lwrist 46.9303
lhand -8.04423 34.2471
lfingers 7.12502
lthumb 17.8663 63.4464
rfemur -24.4444 -8.0235 15.7193
rtibia 27.5467
rfoot -16.7799 -14.4199
rtoes -5.54452
lfemur -78.3153 -3.41638 -20.1696
ltibia 46.7342
lfoot 9.5576 -5.25866
ltoes -37.4082
893
root -1.91627 17.9791 0.0453336 12.8829 -2.62708 11.8994
lowerback -19.914 0.959804 -2.72734
upperback 6.67502 2.46556 -2.20278
thorax 19.2491 0.945238 -0.179594
lowerneck 22.1333 -4.78436 -7.77927
upperneck -0.724627 -7.54507 9.94258
head -3.00559 -4.25191 4.97663
rclavicle -2.22639e-014 2.06736e-014
rhumerus 11.4435 -37.6054 -55.015
rradius 85.4137
rwrist -29.3875
rhand 12.5877 14.4389
rfingers 7.12502
rthumb 37.5763 -11.4743
lclavicle -2.22639e-014 2.06736e-014
lhumerus 24.254 7.50406 59.9497
lradius 73.897
lwrist 46.1063
lhand -6.67919 33.6734
lfingers 7.12502
lthumb 19.1793 62.7477
rfemur -24.4416 -8.23385 15.5193
rtibia 27.4325
rfoot -16.311 -14.0834
rtoes -6.20446
lfemur -77.6882 -3.62476 -17.9372
ltibia 45.6689
lfoot 9.5576 -5.25866
ltoes -37.4082
894
root -1.908 17.9868 0.0478413 12.8312 -2.75328 12.244
lowerback -19.8374 0.918518 -2.74708
upperback 6.74122 2.42319 -2.25255
thorax 19.2883 0.928981 -0.244582
lowerneck 21.8529 -4.75467 -7.89247
upperneck -0.667339 -7.52424 9.94629
head -2.9452 -4.23563 4.98137
rclavicle 2.10712e-014 9.54166e-015
rhumerus 11.1308 -37.7126 -54.8441
rradius 85.3273
rwrist -29.3849
rhand 12.3963 14.5132
rfingers 7.12502
rthumb 37.3954 -11.448
lclavicle 2.10712e-014 9.54166e-015
lhumerus 25.0028 7.65996 60.0655
lradius 73.4564
lwrist 46.1131
lhand -7.36197 34.1936
lfingers 7.12502
lthumb 18.5227 63.3318
rfemur -24.3474 -8.34951 15.0844
rtibia 27.3431
rfoot -16.157 -13.8482
rtoes -6.31301
lfemur -77.0286 -3.93865 -16.0148
ltibia 45.0748
lfoot 9.5576 -5.25866
ltoes -37.4082
895
root -1.90021 17.9941 0.0505485 12.7974 -2.85467 12.5329
lowerback -19.7325 0.868846 -2.72167
upperback 6.6899 2.34954 -2.30233
thorax 19.1575 0.907074 -0.345234
lowerneck 21.8811 -4.71944 -7.96134
upperneck -0.615106 -7.50461 9.87281
head -2.93454 -4.22185 4.96733
rclavicle -1.35174e-014 9.54166e-015
rhumerus 10.2992 -37.7593 -54.4232
rradius 85.5279
rwrist -29.6213
rhand 12.3567 14.4404
rfingers 7.12502
rthumb 37.358 -11.5306
lclavicle -1.35174e-014 9.54166e-015
lhumerus 24.5075 7.33001 59.4324
lradius 73.9439
lwrist 46.5236
lhand -8.19362 34.4832
lfingers 7.12502
lthumb 17.7225 63.6956
rfemur -24.2608 -8.31911 14.701
rtibia 27.2712
rfoot -16.1314 -13.7736
rtoes -6.34617
lfemur -76.4662 -4.28789 -14.0915
ltibia 44.9402
lfoot 9.5576 -5.25866
ltoes -37.4082
896
root -1.89185 18.002 0.0506426 12.7684 -2.97698 12.7122
lowerback -19.6602 0.873118 -2.57595
upperback 6.6053 2.31522 -2.3466
thorax 19.0088 0.916147 -0.492415
lowerneck 21.9565 -4.70921 -7.96628
upperneck -0.530305 -7.50323 9.83361
head -2.92047 -4.22033 4.95635
rclavicle -1.31198e-014 -7.95139e-016
rhumerus 9.34431 -38.0542 -53.9442
rradius 85.8836
rwrist -29.6912
rhand 12.5564 14.0964
rfingers 7.12502
rthumb 37.5468 -11.8247
lclavicle -1.31198e-014 -7.95139e-016
lhumerus 24.9671 7.36767 59.7739
lradius 73.4418
lwrist 45.9697
lhand -8.17633 34.7317
lfingers 7.12502
lthumb 17.7392 63.9425
rfemur -24.2269 -8.22009 14.4351
rtibia 27.269
rfoot -16.1085 -13.7843
rtoes -6.11528
lfemur -75.966 -4.53229 -12.2538
ltibia 45.2401
lfoot 9.5576 -5.25866
ltoes -37.4082
897
root -1.88383 18.0091 0.0488546 12.7441 -3.13729 12.8978
lowerback -19.5956 0.861079 -2.4924
upperback 6.57323 2.27455 -2.36608
thorax 18.9295 0.911421 -0.577632
lowerneck 21.9401 -4.65353 -8.17004
upperneck -0.511779 -7.47214 10.0141
head -2.90285 -4.21442 5.04256
rclavicle 2.0276e-014 -2.22639e-014
rhumerus 8.97923 -38.3796 -53.8022
rradius 86.0003
rwrist -29.5023
rhand 12.5427 13.8232
rfingers 7.12502
rthumb 37.5338 -12.1013
lclavicle 2.0276e-014 -2.22639e-014
lhumerus 25.212 7.17098 59.5794
lradius 73.2954
lwrist 46.0253
lhand -8.45757 34.7701
lfingers 7.12502
lthumb 17.4685 64.0053
rfemur -24.2623 -8.00495 14.1506
rtibia 27.3493
rfoot -16.0482 -13.8517
rtoes -5.44263
lfemur -75.5542 -4.64479 -10.6253
ltibia 45.9282
lfoot 9.5576 -5.25866
ltoes -37.4082
